<?xml version="1.0" standalone="no"?>
<!DOCTYPE svg PUBLIC "-//W3C//DTD SVG 20010904//EN"
 "http://www.w3.org/TR/2001/REC-SVG-20010904/DTD/svg10.dtd">
<svg version="1.0" xmlns="http://www.w3.org/2000/svg"
 width="626.000000pt" height="626.000000pt" viewBox="0 0 626.000000 626.000000"
 preserveAspectRatio="xMidYMid meet">
<metadata>
Created by potrace 1.14, written by Peter Selinger 2001-2017
</metadata>
<g transform="translate(0.000000,626.000000) scale(0.100000,-0.100000)"
fill="#000000" stroke="none">
<path d="M1633 6240 c-48 -29 -42 -46 31 -81 157 -75 228 -185 279 -429 43
-204 60 -307 54 -323 -3 -8 -25 -17 -51 -21 -103 -16 -135 -83 -110 -235 30
-185 14 -214 -331 -621 -73 -85 -198 -243 -279 -350 -117 -155 -161 -223 -215
-331 -92 -184 -129 -339 -83 -339 27 0 42 21 112 155 190 366 289 517 489 749
116 135 322 347 333 344 5 -2 11 -51 12 -108 3 -147 39 -226 129 -286 44 -29
170 -64 231 -64 53 0 106 -27 126 -65 80 -147 140 -268 140 -284 0 -33 -26
-44 -84 -38 -58 6 -127 44 -198 109 -144 131 -312 233 -442 267 -83 22 -142
14 -201 -27 -62 -43 -90 -106 -124 -278 -48 -245 -144 -550 -231 -739 -10 -22
-37 -80 -59 -128 -37 -81 -52 -100 -195 -246 -156 -160 -212 -234 -285 -378
-69 -137 -84 -201 -67 -286 13 -67 14 -65 186 255 67 125 166 260 289 393 98
106 114 122 259 253 51 46 99 96 107 111 7 15 19 77 25 137 16 154 79 675 85
700 3 12 11 24 19 27 22 9 551 -318 562 -347 2 -6 -21 -81 -51 -166 -31 -85
-62 -173 -70 -195 -7 -22 -29 -83 -50 -135 -20 -52 -45 -119 -56 -149 -35 -98
-52 -112 -262 -215 -177 -86 -294 -142 -501 -241 -50 -24 -104 -40 -150 -47
-86 -11 -124 -42 -133 -104 -6 -50 26 -97 128 -184 94 -81 104 -94 266 -323
26 -37 59 -83 73 -101 14 -19 50 -69 80 -112 30 -42 91 -127 136 -188 98 -135
111 -167 94 -239 -28 -115 -89 -209 -372 -572 -43 -55 -104 -133 -136 -174
-167 -215 -185 -234 -271 -284 -68 -41 -86 -56 -102 -91 -23 -50 -23 -77 -4
-143 25 -85 38 -87 104 -17 31 33 83 91 116 130 33 38 121 137 195 219 75 83
176 197 225 255 49 58 92 107 95 110 3 3 46 52 94 110 139 165 266 341 266
367 0 29 6 29 55 -2 51 -31 75 -32 75 -2 0 71 -56 159 -222 349 -192 220 -372
450 -468 598 -27 41 -59 87 -72 103 -15 18 -19 30 -12 37 6 6 77 28 160 50
156 42 257 78 310 111 26 16 33 17 37 5 6 -15 28 -157 52 -341 26 -191 44
-282 82 -400 119 -370 348 -664 703 -903 122 -82 309 -180 395 -208 200 -64
339 -34 625 134 426 251 690 565 823 978 34 103 60 234 87 434 24 181 41 296
45 308 4 11 12 9 37 -6 58 -35 151 -69 317 -113 97 -26 161 -47 161 -55 0 -7
-16 -31 -34 -53 -19 -23 -52 -70 -72 -104 -63 -104 -269 -367 -448 -571 -163
-186 -213 -260 -223 -332 -5 -39 -3 -44 13 -44 11 0 37 12 59 25 49 31 55 31
55 2 0 -22 105 -172 204 -292 93 -112 358 -419 475 -550 70 -77 155 -174 191
-215 35 -41 91 -102 123 -135 l58 -60 19 23 c10 12 24 48 30 79 22 103 -11
160 -124 217 -57 28 -101 75 -247 262 -25 33 -110 142 -190 243 -79 102 -151
195 -159 207 -8 12 -35 50 -58 85 -94 136 -134 249 -112 315 7 21 75 124 151
228 75 105 170 236 209 291 199 280 193 272 289 355 102 87 134 134 128 184
-9 63 -47 93 -137 105 -45 7 -101 23 -140 42 -36 17 -117 56 -180 86 -400 191
-520 254 -544 286 -13 17 -36 64 -51 102 -14 39 -42 113 -61 165 -92 245 -164
456 -160 466 11 29 540 356 562 347 8 -3 16 -15 19 -27 6 -25 69 -546 85 -700
6 -60 18 -122 25 -137 8 -15 56 -65 107 -111 145 -131 161 -147 258 -252 125
-136 224 -271 290 -394 164 -306 171 -316 185 -272 12 39 8 125 -10 175 -31
90 -125 263 -183 338 -10 12 -84 90 -165 174 -140 144 -150 158 -193 250 -25
54 -52 112 -59 128 -19 40 -76 191 -113 301 -51 151 -81 263 -112 424 -35 177
-63 238 -128 284 -73 51 -181 47 -302 -13 -134 -66 -232 -132 -338 -229 -71
-65 -140 -103 -198 -109 -58 -6 -84 5 -84 39 0 10 22 60 49 111 27 51 61 116
76 145 15 29 38 60 50 68 12 8 57 19 101 24 151 19 230 54 287 125 43 54 59
110 64 228 3 59 9 107 13 107 9 0 219 -216 280 -289 25 -29 57 -66 71 -81 44
-47 153 -190 221 -290 63 -92 136 -221 253 -445 65 -124 80 -145 107 -145 14
0 18 8 18 36 0 66 -31 158 -100 299 -55 111 -95 175 -198 311 -71 95 -134 178
-140 185 -7 8 -87 104 -179 214 -265 316 -293 356 -314 453 -8 37 -6 71 5 143
25 152 -6 218 -109 233 -27 5 -49 14 -52 23 -6 15 19 161 63 360 44 206 125
324 267 391 40 19 67 38 67 47 0 20 -58 55 -91 55 -98 0 -238 -139 -324 -323
-50 -105 -65 -175 -65 -299 0 -133 -19 -302 -36 -326 -12 -16 -14 -16 -46 2
-35 20 -190 114 -248 151 -19 12 -96 60 -171 107 l-137 84 62 11 c115 19 318
76 354 99 28 18 29 50 1 65 -26 13 -119 -2 -221 -37 -81 -27 -222 -43 -198
-22 35 29 133 100 219 158 50 33 89 65 86 70 -10 16 -82 31 -112 24 -51 -12
-79 -32 -148 -103 -42 -43 -77 -71 -89 -71 -30 0 -60 23 -168 131 -53 52 -119
107 -147 122 l-50 28 -49 -25 c-27 -14 -92 -68 -148 -123 -169 -167 -167 -167
-276 -45 -46 51 -77 72 -125 83 -39 8 -107 -3 -118 -21 -3 -5 36 -37 86 -70
86 -58 184 -129 219 -158 24 -21 -115 -5 -202 23 -106 34 -193 48 -218 35 -27
-14 -25 -46 3 -64 36 -23 231 -78 348 -99 l67 -11 -137 -84 c-75 -47 -152 -95
-171 -107 -58 -37 -213 -131 -248 -151 -32 -18 -34 -18 -46 -2 -17 24 -36 193
-36 326 0 127 -15 195 -70 309 -84 178 -222 313 -319 313 -14 0 -41 -9 -58
-20z m1029 -752 c8 -7 23 -42 32 -78 9 -36 27 -107 40 -157 13 -51 22 -102 19
-113 -3 -12 -32 -35 -72 -57 -212 -115 -303 -222 -335 -391 -9 -47 -20 -78
-32 -87 -33 -25 -115 -48 -154 -42 -56 7 -126 42 -146 72 -35 53 -23 93 90
299 57 105 120 224 140 265 74 153 152 222 319 281 63 23 79 24 99 8z m1032
-8 c164 -56 257 -136 320 -275 15 -33 77 -151 137 -261 117 -215 130 -255 97
-306 -20 -31 -93 -68 -147 -75 -40 -6 -121 16 -155 42 -12 9 -23 40 -32 87
-31 164 -129 281 -323 384 -42 23 -77 48 -82 61 -5 14 0 53 17 115 13 51 31
122 40 158 24 100 31 104 128 70z"/>
</g>
</svg>
